<svg xmlns="http://www.w3.org/2000/svg" height="24" viewBox="0 0 24 24" width="24">
    <path d="M0 0h24v24H0z" fill="none"/>
    <path d="M22.117 18.865c.02-.158.034-.316.034-.484 0-.167-.013-.326-.033-.484l1.043-.815a.25.25 0 0 0 .06-.316l-.99-1.71a.248.248 0 0 0-.3-.11l-1.232.495a3.612 3.612 0 0 0-.835-.485l-.188-1.31a.24.24 0 0 0-.242-.207h-1.978a.24.24 0 0 0-.242.207l-.188 1.31a3.798 3.798 0 0 0-.835.485l-1.23-.495a.24.24 0 0 0-.302.11l-.99 1.71a.244.244 0 0 0 .06.316l1.043.816a3.92 3.92 0 0 0-.033.485c0 .164.015.327.034.485l-1.042.816a.25.25 0 0 0-.06.317l.99 1.71c.06.11.192.15.3.11l1.232-.495c.257.198.534.36.835.484l.188 1.31a.24.24 0 0 0 .242.208h1.978a.24.24 0 0 0 .242-.208l.188-1.31c.3-.123.578-.29.835-.484l1.23.494a.24.24 0 0 0 .302-.11l.99-1.71a.25.25 0 0 0-.06-.315l-1.043-.815zm-3.673 1.246c-.954 0-1.73-.775-1.73-1.73 0-.953.776-1.73 1.73-1.73s1.73.777 1.73 1.73c0 .955-.776 1.73-1.73 1.73zM37.402 8.62a3.266 3.266 0 0 0 0 6.53 3.266 3.266 0 0 0 0-6.53zm-.326 4.57h-.653v-2.61h.653v2.61zm1.306 0h-.653v-2.61h.652v2.61zM26.425 21.24h.62v-2.48h-.62v2.48zm.93-4.343a3.105 3.105 0 0 0 0 6.206 3.105 3.105 0 0 0 0-6.206zm0 5.586A2.486 2.486 0 0 1 24.876 20a2.486 2.486 0 0 1 2.48-2.483A2.486 2.486 0 0 1 29.84 20a2.486 2.486 0 0 1-2.484 2.483zm.312-1.242h.62v-2.48h-.62v2.48z"/>
    <path d="M2 19h4V5H2v14zm8-14v14h4V5h-4z"/>
</svg>
