<?xml version="1.0" encoding="UTF-8" standalone="no"?>
<svg
   xmlns:dc="http://purl.org/dc/elements/1.1/"
   xmlns:cc="http://creativecommons.org/ns#"
   xmlns:rdf="http://www.w3.org/1999/02/22-rdf-syntax-ns#"
   xmlns:svg="http://www.w3.org/2000/svg"
   xmlns="http://www.w3.org/2000/svg"
   version="1.1"
   id="svg2"
   viewBox="0 0 512 512"
   height="512"
   width="512">
  <g
     fill-opacity=".353"
     id="g4">
    <path
       id="path6"
       d="M479.97 32.18c-21.72 21.21-42.89 43-64.52 64.3-1.05 1.23-2.26-.16-3.09-.85-24.51-23.98-54.58-42.28-87.22-52.84-37.6-12.16-78.45-14.07-117.03-5.59C139.44 51.87 79.3 101.26 51.67 165.81c.032.014.063.025.094.04-2.3 4.536-3.605 9.665-3.605 15.1 0 18.474 14.976 33.45 33.45 33.45 15.83 0 29.084-11.002 32.555-25.773 19.757-41.98 58.832-74.445 103.967-85.527 52.2-13.17 111.37 1.33 149.4 40.04-22.03 21.83-44.39 43.34-66.33 65.26 59.52-.32 119.06-.14 178.59-.09.5-58.7.14-117.42.18-176.13zM431.61 297.5c-14.62 0-27.042 9.383-31.592 22.453l-.027-.012c-19.11 42.59-57.57 76.22-102.84 88.18-52.798 14.312-113.45.3-152.178-39.05 21.92-21.76 44.37-43.01 66.19-64.87-59.7.05-119.41.03-179.11.01-.14 58.6-.16 117.19.01 175.79 21.92-21.91 43.75-43.91 65.79-65.7 14.11 13.79 29.76 26.07 46.92 35.87 54.74 31.97 123.4 38.602 183.3 17.89 57.476-19.296 106.072-63.177 131.21-118.317 3.646-5.357 5.777-11.824 5.777-18.793 0-18.473-14.977-33.45-33.45-33.45z" />
  </g>
</svg>
