<svg width="24" viewBox="0 0 24 24" height="24" xmlns="http://www.w3.org/2000/svg">
    <path fill="none" d="M0 0h24v24H0z"/><path d="M10 2c-.25 0-.46.18-.49.42l-.38 2.65c-.355.146-.69.33-1.013.528l3.018 3.023c.278-.07.565-.12.865-.12 1.93 0 3.5 1.57 3.5 3.5 0 .303-.05.592-.123.873l4.855 4.867 1.428-2.47c.12-.22.07-.49-.12-.64l-2.11-1.65c.04-.32.07-.64.07-.98 0-.34-.03-.66-.07-.98l2.11-1.65c.19-.15.24-.42.12-.64l-2-3.46c-.12-.22-.39-.3-.61-.22l-2.49 1c-.52-.4-1.08-.73-1.69-.98l-.38-2.65C14.46 2.18 14.25 2 14 2h-4zM4.775 5.016c-.175-.003-.345.09-.435.254l-2 3.46c-.13.22-.07.49.12.64l2.11 1.65c-.04.32-.07.65-.07.98 0 .33.03.66.07.98l-2.11 1.65c-.19.15-.24.42-.12.64l2 3.46c.12.22.39.3.61.22l2.49-1c.52.4 1.08.73 1.69.98l.38 2.65c.03.24.24.42.49.42h4c.25 0 .46-.18.49-.42l.38-2.65c.61-.25 1.17-.59 1.69-.98l2.35.943-4.424-4.434c-.634.64-1.514 1.04-2.486 1.04-1.93 0-3.5-1.57-3.5-3.5 0-.975.402-1.857 1.047-2.492L5.2 5.152l-.25-.1c-.058-.024-.116-.036-.175-.036z"/>
    <path d="M.636 1.83l21.508 21.56" fill="none" stroke="#000" stroke-width="1.75"/>
</svg>
